0
SECTION
2
HEADER
9
$ACADVER
1
AC1008
9
$UCSORG
10
0.0
20
0.0
30
0.0
9
$UCSXDIR
10
1.0
20
0.0
30
0.0
9
$TILEMODE
70
1
9
$UCSYDIR
10
0.0
20
1.0
30
0.0
9
$EXTMIN
10
-35.340057
20
-38.755745
30
-11.139054
9
$EXTMAX
10
35.340057
20
38.755745
30
11.139054
0
ENDSEC
0
SECTION
2
TABLES
0
TABLE
2
LTYPE
70
1
0
LTYPE
2
CONTINUOUS
70
64
3
Solid line
72
65
73
0
40
0.0
0
ENDTAB
0
TABLE
2
LAYER
70
1
0
LAYER
2
0
70
0
62
7
6
CONTINUOUS
0
ENDTAB
0
TABLE
2
STYLE
70
1
0
STYLE
2
STANDARD
70
0
40
0.0
41
1.0
50
0.0
71
0
42
0.2
3
txt
4

0
ENDTAB
0
TABLE
2
UCS
70
0
0
ENDTAB
0
ENDSEC
0
SECTION
2
ENTITIES
0
POLYLINE
8
0
66
1
70
64
71
87
72
146
62
132
0
VERTEX
8
0
10
-15.839437
20
-24.085522
30
-8.572394
70
192
0
VERTEX
8
0
10
15.497934
20
-24.013264
30
-8.572394
70
192
0
VERTEX
8
0
10
-27.627306
20
-10.332235
30
-8.572394
70
192
0
VERTEX
8
0
10
-15.734432
20
-9.948718
30
-11.139054
70
192
0
VERTEX
8
0
10
15.569018
20
-9.948718
30
-11.139054
70
192
0
VERTEX
8
0
10
-30.205175
20
5.271120
30
-8.572394
70
192
0
VERTEX
8
0
10
-15.734432
20
5.751766
30
-11.139054
70
192
0
VERTEX
8
0
10
15.569018
20
5.751766
30
-11.139054
70
192
0
VERTEX
8
0
10
30.205177
20
5.271027
30
-8.572394
70
192
0
VERTEX
8
0
10
-27.799059
20
21.023270
30
-8.572394
70
192
0
VERTEX
8
0
10
-15.735912
20
21.430861
30
-10.451110
70
192
0
VERTEX
8
0
10
15.666534
20
21.652622
30
-10.451110
70
192
0
VERTEX
8
0
10
28.021561
20
20.863581
30
-8.572394
70
192
0
VERTEX
8
0
10
-15.797337
20
32.811935
30
-5.688106
70
192
0
VERTEX
8
0
10
15.603631
20
32.811935
30
-5.688106
70
192
0
VERTEX
8
0
10
-18.504395
20
-24.085522
30
5.091664
70
192
0
VERTEX
8
0
10
7.500994
20
-24.063828
30
5.091664
70
192
0
VERTEX
8
0
10
15.426746
20
-23.923397
30
5.240429
70
192
0
VERTEX
8
0
10
-27.627306
20
-10.332235
30
5.091664
70
192
0
VERTEX
8
0
10
-15.734432
20
-9.948719
30
7.999547
70
192
0
VERTEX
8
0
10
15.835478
20
-10.034842
30
7.956386
70
192
0
VERTEX
8
0
10
-30.205175
20
5.271120
30
5.091664
70
192
0
VERTEX
8
0
10
-15.734432
20
5.751764
30
7.999547
70
192
0
VERTEX
8
0
10
15.569018
20
5.751764
30
7.999547
70
192
0
VERTEX
8
0
10
26.812881
20
11.412470
30
5.912942
70
192
0
VERTEX
8
0
10
-27.799059
20
21.023270
30
5.091664
70
192
0
VERTEX
8
0
10
-15.735912
20
20.742912
30
7.082282
70
192
0
VERTEX
8
0
10
15.666534
20
20.964674
30
7.082282
70
192
0
VERTEX
8
0
10
28.021561
20
20.863581
30
5.091664
70
192
0
VERTEX
8
0
10
-15.797337
20
32.568806
30
3.645826
70
192
0
VERTEX
8
0
10
15.603631
20
32.568806
30
3.645826
70
192
0
VERTEX
8
0
10
-18.532139
20
-29.084538
30
-1.452197
70
192
0
VERTEX
8
0
10
7.484534
20
-29.059158
30
-1.452197
70
192
0
VERTEX
8
0
10
15.292613
20
-28.978727
30
-0.983886
70
192
0
VERTEX
8
0
10
35.340057
20
5.262623
30
-1.452197
70
192
0
VERTEX
8
0
10
32.785225
20
23.505909
30
-1.452197
70
192
0
VERTEX
8
0
10
15.780827
20
38.755745
30
-1.452197
70
192
0
VERTEX
8
0
10
-15.620137
20
38.755745
30
-1.452197
70
192
0
VERTEX
8
0
10
-32.524899
20
23.692745
30
-1.452197
70
192
0
VERTEX
8
0
10
-35.340057
20
5.262732
30
-1.452197
70
192
0
VERTEX
8
0
10
-32.323948
20
-12.993193
30
-1.452197
70
192
0
VERTEX
8
0
10
7.510375
20
-38.712070
30
5.103282
70
192
0
VERTEX
8
0
10
-18.495014
20
-38.729282
30
5.090082
70
192
0
VERTEX
8
0
10
-18.522758
20
-38.755745
30
-1.374660
70
192
0
VERTEX
8
0
10
7.493916
20
-38.735600
30
-1.359215
70
192
0
VERTEX
8
0
10
17.546959
20
-35.090576
30
0.508775
70
192
0
VERTEX
8
0
10
21.788492
20
-35.090576
30
-3.819676
70
192
0
VERTEX
8
0
10
26.058245
20
-35.090576
30
-3.819676
70
192
0
VERTEX
8
0
10
30.315044
20
-35.090576
30
0.475499
70
192
0
VERTEX
8
0
10
20.885908
20
-27.129539
30
-5.608399
70
192
0
VERTEX
8
0
10
26.521980
20
-23.782967
30
-5.882949
70
192
0
VERTEX
8
0
10
32.140957
20
-23.782967
30
-0.213320
70
192
0
VERTEX
8
0
10
30.328995
20
-10.120963
30
-8.696917
70
192
0
VERTEX
8
0
10
31.615427
20
-10.120963
30
0.021290
70
192
0
VERTEX
8
0
10
21.744965
20
-35.090576
30
9.009228
70
192
0
VERTEX
8
0
10
26.017208
20
-35.090576
30
9.075780
70
192
0
VERTEX
8
0
10
20.828453
20
-23.782967
30
11.051204
70
192
0
VERTEX
8
0
10
26.467812
20
-23.782967
30
11.139054
70
192
0
VERTEX
8
0
10
21.236984
20
-10.120963
30
10.355714
70
192
0
VERTEX
8
0
10
26.410707
20
-10.120963
30
10.436311
70
192
0
VERTEX
8
0
10
20.698709
20
11.433204
30
6.922774
70
192
0
VERTEX
8
0
10
20.296970
20
-36.497894
30
-1.001641
70
192
0
VERTEX
8
0
10
27.470154
20
-36.497894
30
-1.001641
70
192
0
VERTEX
8
0
10
17.518742
20
-35.090576
30
4.719825
70
192
0
VERTEX
8
0
10
20.296970
20
-36.497894
30
6.171540
70
192
0
VERTEX
8
0
10
27.470154
20
-36.497894
30
6.171540
70
192
0
VERTEX
8
0
10
30.327993
20
-35.090576
30
4.719825
70
192
0
VERTEX
8
0
10
32.158051
20
-23.782967
30
5.389194
70
192
0
VERTEX
8
0
10
31.631109
20
-10.120963
30
5.161210
70
192
0
VERTEX
8
0
10
-15.701324
20
21.143221
30
1.654456
70
192
0
VERTEX
8
0
10
15.683187
20
21.143221
30
1.654456
70
192
0
VERTEX
8
0
10
-15.701324
20
30.114935
30
2.298568
70
192
0
VERTEX
8
0
10
15.683187
20
30.114935
30
2.298568
70
192
0
VERTEX
8
0
10
-15.701324
20
20.868670
30
3.550159
70
192
0
VERTEX
8
0
10
15.683187
20
20.868670
30
3.550159
70
192
0
VERTEX
8
0
10
-15.701324
20
21.240988
30
-2.317132
70
192
0
VERTEX
8
0
10
15.683187
20
21.240988
30
-2.317132
70
192
0
VERTEX
8
0
10
-15.701324
20
36.133999
30
-1.481016
70
192
0
VERTEX
8
0
10
15.683187
20
36.133999
30
-1.481016
70
192
0
VERTEX
8
0
10
-15.701324
20
20.966436
30
-0.421428
70
192
0
VERTEX
8
0
10
15.683187
20
20.966436
30
-0.421428
70
192
0
VERTEX
8
0
10
-15.701324
20
21.343954
30
-6.145593
70
192
0
VERTEX
8
0
10
15.683187
20
21.343954
30
-6.145593
70
192
0
VERTEX
8
0
10
-15.701324
20
29.827721
30
-5.406801
70
192
0
VERTEX
8
0
10
15.683187
20
29.827721
30
-5.406801
70
192
0
VERTEX
8
0
10
-15.701324
20
21.069403
30
-4.249889
70
192
0
VERTEX
8
0
10
15.683187
20
21.069403
30
-4.249889
70
192
0
VERTEX
8
0
10
0
20
0
30
0
70
128
71
1
72
3
73
4
0
VERTEX
8
0
10
0
20
0
30
0
70
128
71
1
72
4
73
5
0
VERTEX
8
0
10
0
20
0
30
0
70
128
71
5
72
2
73
1
0
VERTEX
8
0
10
0
20
0
30
0
70
128
71
3
72
6
73
7
0
VERTEX
8
0
10
0
20
0
30
0
70
128
71
7
72
4
73
3
0
VERTEX
8
0
10
0
20
0
30
0
70
128
71
4
72
7
73
8
0
VERTEX
8
0
10
0
20
0
30
0
70
128
71
8
72
5
73
4
0
VERTEX
8
0
10
0
20
0
30
0
70
128
71
6
72
10
73
11
0
VERTEX
8
0
10
0
20
0
30
0
70
128
71
11
72
7
73
6
0
VERTEX
8
0
10
0
20
0
30
0
70
128
71
11
72
8
73
7
0
VERTEX
8
0
10
0
20
0
30
0
70
128
71
8
72
11
73
12
0
VERTEX
8
0
10
0
20
0
30
0
70
128
71
8
72
12
73
13
0
VERTEX
8
0
10
0
20
0
30
0
70
128
71
13
72
9
73
8
0
VERTEX
8
0
10
0
20
0
30
0
70
128
71
14
72
11
73
10
0
VERTEX
8
0
10
0
20
0
30
0
70
128
71
12
72
15
73
13
0
VERTEX
8
0
10
0
20
0
30
0
70
128
71
20
72
19
73
16
0
VERTEX
8
0
10
0
20
0
30
0
70
128
71
16
72
17
73
21
0
VERTEX
8
0
10
0
20
0
30
0
70
128
71
21
72
20
73
16
0
VERTEX
8
0
10
0
20
0
30
0
70
128
71
17
72
18
73
21
0
VERTEX
8
0
10
0
20
0
30
0
70
128
71
19
72
20
73
23
0
VERTEX
8
0
10
0
20
0
30
0
70
128
71
23
72
22
73
19
0
VERTEX
8
0
10
0
20
0
30
0
70
128
71
20
72
21
73
24
0
VERTEX
8
0
10
0
20
0
30
0
70
128
71
24
72
23
73
20
0
VERTEX
8
0
10
0
20
0
30
0
70
128
71
22
72
23
73
27
0
VERTEX
8
0
10
0
20
0
30
0
70
128
71
27
72
26
73
22
0
VERTEX
8
0
10
0
20
0
30
0
70
128
71
23
72
24
73
27
0
VERTEX
8
0
10
0
20
0
30
0
70
128
71
28
72
27
73
24
0
VERTEX
8
0
10
0
20
0
30
0
70
128
71
26
72
27
73
30
0
VERTEX
8
0
10
0
20
0
30
0
70
128
71
29
72
31
73
28
0
VERTEX
8
0
10
0
20
0
30
0
70
128
71
1
72
2
73
33
0
VERTEX
8
0
10
0
20
0
30
0
70
128
71
33
72
32
73
1
0
VERTEX
8
0
10
0
20
0
30
0
70
128
71
44
72
45
73
42
0
VERTEX
8
0
10
0
20
0
30
0
70
128
71
42
72
43
73
44
0
VERTEX
8
0
10
0
20
0
30
0
70
128
71
33
72
34
73
18
0
VERTEX
8
0
10
0
20
0
30
0
70
128
71
18
72
17
73
33
0
VERTEX
8
0
10
0
20
0
30
0
70
128
71
9
72
13
73
36
0
VERTEX
8
0
10
0
20
0
30
0
70
128
71
36
72
35
73
9
0
VERTEX
8
0
10
0
20
0
30
0
70
128
71
35
72
36
73
29
0
VERTEX
8
0
10
0
20
0
30
0
70
128
71
29
72
25
73
35
0
VERTEX
8
0
10
0
20
0
30
0
70
128
71
13
72
15
73
37
0
VERTEX
8
0
10
0
20
0
30
0
70
128
71
37
72
36
73
13
0
VERTEX
8
0
10
0
20
0
30
0
70
128
71
14
72
10
73
39
0
VERTEX
8
0
10
0
20
0
30
0
70
128
71
39
72
38
73
14
0
VERTEX
8
0
10
0
20
0
30
0
70
128
71
36
72
37
73
31
0
VERTEX
8
0
10
0
20
0
30
0
70
128
71
31
72
29
73
36
0
VERTEX
8
0
10
0
20
0
30
0
70
128
71
38
72
39
73
26
0
VERTEX
8
0
10
0
20
0
30
0
70
128
71
26
72
30
73
38
0
VERTEX
8
0
10
0
20
0
30
0
70
128
71
10
72
6
73
40
0
VERTEX
8
0
10
0
20
0
30
0
70
128
71
40
72
39
73
10
0
VERTEX
8
0
10
0
20
0
30
0
70
128
71
6
72
3
73
41
0
VERTEX
8
0
10
0
20
0
30
0
70
128
71
41
72
40
73
6
0
VERTEX
8
0
10
0
20
0
30
0
70
128
71
3
72
1
73
32
0
VERTEX
8
0
10
0
20
0
30
0
70
128
71
32
72
41
73
3
0
VERTEX
8
0
10
0
20
0
30
0
70
128
71
39
72
40
73
22
0
VERTEX
8
0
10
0
20
0
30
0
70
128
71
22
72
26
73
39
0
VERTEX
8
0
10
0
20
0
30
0
70
128
71
40
72
41
73
19
0
VERTEX
8
0
10
0
20
0
30
0
70
128
71
19
72
22
73
40
0
VERTEX
8
0
10
0
20
0
30
0
70
128
71
41
72
32
73
16
0
VERTEX
8
0
10
0
20
0
30
0
70
128
71
16
72
19
73
41
0
VERTEX
8
0
10
0
20
0
30
0
70
128
71
12
72
28
73
31
0
VERTEX
8
0
10
0
20
0
30
0
70
128
71
31
72
15
73
12
0
VERTEX
8
0
10
0
20
0
30
0
70
128
71
15
72
31
73
37
0
VERTEX
8
0
10
0
20
0
30
0
70
128
71
27
72
11
73
30
0
VERTEX
8
0
10
0
20
0
30
0
70
128
71
30
72
11
73
14
0
VERTEX
8
0
10
0
20
0
30
0
70
128
71
14
72
38
73
30
0
VERTEX
8
0
10
0
20
0
30
0
70
128
71
27
72
28
73
12
0
VERTEX
8
0
10
0
20
0
30
0
70
128
71
12
72
11
73
27
0
VERTEX
8
0
10
0
20
0
30
0
70
128
71
17
72
16
73
43
0
VERTEX
8
0
10
0
20
0
30
0
70
128
71
43
72
42
73
17
0
VERTEX
8
0
10
0
20
0
30
0
70
128
71
32
72
33
73
45
0
VERTEX
8
0
10
0
20
0
30
0
70
128
71
45
72
44
73
32
0
VERTEX
8
0
10
0
20
0
30
0
70
128
71
33
72
17
73
42
0
VERTEX
8
0
10
0
20
0
30
0
70
128
71
42
72
45
73
33
0
VERTEX
8
0
10
0
20
0
30
0
70
128
71
16
72
32
73
44
0
VERTEX
8
0
10
0
20
0
30
0
70
128
71
44
72
43
73
16
0
VERTEX
8
0
10
0
20
0
30
0
70
128
71
46
72
34
73
50
0
VERTEX
8
0
10
0
20
0
30
0
70
128
71
50
72
47
73
46
0
VERTEX
8
0
10
0
20
0
30
0
70
128
71
47
72
50
73
51
0
VERTEX
8
0
10
0
20
0
30
0
70
128
71
51
72
48
73
47
0
VERTEX
8
0
10
0
20
0
30
0
70
128
71
48
72
51
73
52
0
VERTEX
8
0
10
0
20
0
30
0
70
128
71
52
72
49
73
48
0
VERTEX
8
0
10
0
20
0
30
0
70
128
71
54
72
52
73
51
0
VERTEX
8
0
10
0
20
0
30
0
70
128
71
55
72
56
73
58
0
VERTEX
8
0
10
0
20
0
30
0
70
128
71
58
72
57
73
55
0
VERTEX
8
0
10
0
20
0
30
0
70
128
71
57
72
58
73
60
0
VERTEX
8
0
10
0
20
0
30
0
70
128
71
60
72
59
73
57
0
VERTEX
8
0
10
0
20
0
30
0
70
128
71
59
72
60
73
25
0
VERTEX
8
0
10
0
20
0
30
0
70
128
71
25
72
61
73
59
0
VERTEX
8
0
10
0
20
0
30
0
70
128
71
46
72
47
73
62
0
VERTEX
8
0
10
0
20
0
30
0
70
128
71
47
72
48
73
63
0
VERTEX
8
0
10
0
20
0
30
0
70
128
71
63
72
62
73
47
0
VERTEX
8
0
10
0
20
0
30
0
70
128
71
49
72
63
73
48
0
VERTEX
8
0
10
0
20
0
30
0
70
128
71
46
72
62
73
65
0
VERTEX
8
0
10
0
20
0
30
0
70
128
71
65
72
64
73
46
0
VERTEX
8
0
10
0
20
0
30
0
70
128
71
62
72
63
73
66
0
VERTEX
8
0
10
0
20
0
30
0
70
128
71
66
72
65
73
62
0
VERTEX
8
0
10
0
20
0
30
0
70
128
71
63
72
49
73
67
0
VERTEX
8
0
10
0
20
0
30
0
70
128
71
67
72
66
73
63
0
VERTEX
8
0
10
0
20
0
30
0
70
128
71
64
72
65
73
55
0
VERTEX
8
0
10
0
20
0
30
0
70
128
71
65
72
66
73
56
0
VERTEX
8
0
10
0
20
0
30
0
70
128
71
56
72
55
73
65
0
VERTEX
8
0
10
0
20
0
30
0
70
128
71
66
72
67
73
56
0
VERTEX
8
0
10
0
20
0
30
0
70
128
71
49
72
52
73
68
0
VERTEX
8
0
10
0
20
0
30
0
70
128
71
68
72
67
73
49
0
VERTEX
8
0
10
0
20
0
30
0
70
128
71
52
72
54
73
69
0
VERTEX
8
0
10
0
20
0
30
0
70
128
71
69
72
68
73
52
0
VERTEX
8
0
10
0
20
0
30
0
70
128
71
67
72
68
73
58
0
VERTEX
8
0
10
0
20
0
30
0
70
128
71
58
72
56
73
67
0
VERTEX
8
0
10
0
20
0
30
0
70
128
71
68
72
69
73
60
0
VERTEX
8
0
10
0
20
0
30
0
70
128
71
60
72
58
73
68
0
VERTEX
8
0
10
0
20
0
30
0
70
128
71
25
72
60
73
69
0
VERTEX
8
0
10
0
20
0
30
0
70
128
71
34
72
46
73
64
0
VERTEX
8
0
10
0
20
0
30
0
70
128
71
64
72
18
73
34
0
VERTEX
8
0
10
0
20
0
30
0
70
128
71
61
72
21
73
59
0
VERTEX
8
0
10
0
20
0
30
0
70
128
71
21
72
18
73
57
0
VERTEX
8
0
10
0
20
0
30
0
70
128
71
57
72
59
73
21
0
VERTEX
8
0
10
0
20
0
30
0
70
128
71
18
72
64
73
55
0
VERTEX
8
0
10
0
20
0
30
0
70
128
71
55
72
57
73
18
0
VERTEX
8
0
10
0
20
0
30
0
70
128
71
24
72
21
73
61
0
VERTEX
8
0
10
0
20
0
30
0
70
128
71
61
72
28
73
24
0
VERTEX
8
0
10
0
20
0
30
0
70
128
71
28
72
61
73
29
0
VERTEX
8
0
10
0
20
0
30
0
70
128
71
29
72
61
73
25
0
VERTEX
8
0
10
0
20
0
30
0
70
128
71
53
72
2
73
5
0
VERTEX
8
0
10
0
20
0
30
0
70
128
71
5
72
8
73
9
0
VERTEX
8
0
10
0
20
0
30
0
70
128
71
9
72
53
73
5
0
VERTEX
8
0
10
0
20
0
30
0
70
128
71
9
72
35
73
53
0
VERTEX
8
0
10
0
20
0
30
0
70
128
71
50
72
2
73
51
0
VERTEX
8
0
10
0
20
0
30
0
70
128
71
51
72
2
73
53
0
VERTEX
8
0
10
0
20
0
30
0
70
128
71
54
72
51
73
53
0
VERTEX
8
0
10
0
20
0
30
0
70
128
71
35
72
25
73
54
0
VERTEX
8
0
10
0
20
0
30
0
70
128
71
54
72
53
73
35
0
VERTEX
8
0
10
0
20
0
30
0
70
128
71
25
72
69
73
54
0
VERTEX
8
0
10
0
20
0
30
0
70
128
71
50
72
34
73
33
0
VERTEX
8
0
10
0
20
0
30
0
70
128
71
33
72
2
73
50
0
VERTEX
8
0
10
0
20
0
30
0
70
128
71
70
72
72
73
-73
0
VERTEX
8
0
10
0
20
0
30
0
70
128
71
73
72
71
73
-70
0
VERTEX
8
0
10
0
20
0
30
0
70
128
71
74
72
75
73
-73
0
VERTEX
8
0
10
0
20
0
30
0
70
128
71
73
72
72
73
-74
0
VERTEX
8
0
10
0
20
0
30
0
70
128
71
76
72
78
73
-79
0
VERTEX
8
0
10
0
20
0
30
0
70
128
71
79
72
77
73
-76
0
VERTEX
8
0
10
0
20
0
30
0
70
128
71
80
72
81
73
-79
0
VERTEX
8
0
10
0
20
0
30
0
70
128
71
79
72
78
73
-80
0
VERTEX
8
0
10
0
20
0
30
0
70
128
71
82
72
84
73
-85
0
VERTEX
8
0
10
0
20
0
30
0
70
128
71
85
72
83
73
-82
0
VERTEX
8
0
10
0
20
0
30
0
70
128
71
86
72
87
73
-85
0
VERTEX
8
0
10
0
20
0
30
0
70
128
71
85
72
84
73
-86
0
SEQEND
8
0
0
ENDSEC
0
EOF
